<svg width="50" height="49" viewBox="0 0 50 49" fill="none" xmlns="http://www.w3.org/2000/svg">
<path d="M6.13379 12.0206L10.2171 12.0206M10.2171 12.0206L42.8838 12.0206M10.2171 12.0206L10.2171 40.0206C10.2171 41.0815 10.6473 42.0989 11.4131 42.8491C12.1789 43.5992 13.2175 44.0206 14.3005 44.0206L34.7171 44.0206C35.8001 44.0206 36.8387 43.5992 37.6045 42.8491C38.3703 42.0989 38.8005 41.0815 38.8005 40.0206L38.8005 12.0206M16.3421 12.0206L16.3421 8.02063C16.3421 6.95976 16.7723 5.94235 17.5381 5.1922C18.3039 4.44206 19.3425 4.02063 20.4255 4.02063L28.5921 4.02063C29.6751 4.02063 30.7137 4.44206 31.4795 5.1922C32.2453 5.94235 32.6755 6.95976 32.6755 8.02063L32.6755 12.0206" stroke="white" stroke-width="4" stroke-linecap="round" stroke-linejoin="round"/>
</svg>
