<svg width="21" height="21" viewBox="0 0 21 21" fill="none" xmlns="http://www.w3.org/2000/svg">
<path d="M3.86352 15.1105C4.7153 14.4628 5.6667 13.9529 6.71773 13.5808C7.76875 13.2087 8.86926 13.0242 10.0193 13.0274C11.1693 13.0305 12.2687 13.221 13.3177 13.5989C14.3667 13.9768 15.3153 14.4919 16.1635 15.1442C16.7487 14.4625 17.205 13.6887 17.5323 12.823C17.8597 11.9572 18.0248 11.0326 18.0275 10.0493C18.0335 7.83265 17.2595 5.94302 15.7055 4.38042C14.1514 2.81782 12.2661 2.03348 10.0494 2.02741C7.83275 2.02133 5.94312 2.79532 4.38053 4.34937C2.81793 5.90343 2.03359 7.78879 2.02751 10.0054C2.02482 10.9888 2.18478 11.9142 2.5074 12.7818C2.83003 13.6493 3.28207 14.4256 3.86352 15.1105ZM10.0247 11.0274C9.04141 11.0247 8.21317 10.6849 7.54002 10.0081C6.86688 9.33121 6.53165 8.50112 6.53435 7.51779C6.53704 6.53446 6.87681 5.70622 7.55366 5.03307C8.23051 4.35993 9.0606 4.0247 10.0439 4.0274C11.0273 4.03009 11.8555 4.36986 12.5286 5.04671C13.2018 5.72356 13.537 6.55365 13.5343 7.53698C13.5316 8.52031 13.1919 9.34855 12.515 10.0217C11.8382 10.6948 11.0081 11.0301 10.0247 11.0274ZM10.0001 20.0273C8.61674 20.0235 7.31746 19.7575 6.10224 19.2291C4.88702 18.7008 3.83064 17.9854 2.93311 17.083C2.03558 16.1805 1.32599 15.1202 0.804325 13.9021C0.282662 12.684 0.0237268 11.3833 0.0275189 9.99996C0.031311 8.61663 0.297374 7.31736 0.825707 6.10214C1.35404 4.88691 2.06944 3.83054 2.9719 2.93301C3.87437 2.03548 4.93465 1.32588 6.15275 0.804219C7.37085 0.282556 8.67157 0.0236207 10.0549 0.0274128C11.4382 0.0312049 12.7375 0.297268 13.9527 0.825601C15.1679 1.35393 16.2243 2.06933 17.1219 2.9718C18.0194 3.87426 18.729 4.93454 19.2506 6.15264C19.7723 7.37075 20.0312 8.67146 20.0274 10.0548C20.0237 11.4381 19.7576 12.7374 19.2293 13.9526C18.7009 15.1678 17.9855 16.2242 17.0831 17.1217C16.1806 18.0193 15.1203 18.7289 13.9022 19.2505C12.6841 19.7722 11.3834 20.0311 10.0001 20.0273ZM10.0056 18.0273C10.8889 18.0298 11.7226 17.9029 12.5066 17.6467C13.2906 17.3905 14.0083 17.0216 14.6596 16.5401C14.011 16.055 13.2953 15.6822 12.5127 15.4217C11.7301 15.1612 10.8971 15.0298 10.0138 15.0274C9.13045 15.0249 8.29676 15.1518 7.51272 15.408C6.72868 15.6642 6.011 16.0331 5.35968 16.5146C6.00835 16.9997 6.724 17.3725 7.50662 17.633C8.28925 17.8935 9.12222 18.0249 10.0056 18.0273ZM10.0302 9.02738C10.4636 9.02857 10.8223 8.88788 11.1064 8.60533C11.3905 8.32277 11.5331 7.96483 11.5343 7.5315C11.5355 7.09816 11.3948 6.73944 11.1123 6.45534C10.8297 6.17123 10.4718 6.02858 10.0384 6.02739C9.60511 6.0262 9.2464 6.16689 8.96229 6.44944C8.67818 6.732 8.53553 7.08994 8.53434 7.52327C8.53315 7.9566 8.67384 8.31532 8.95639 8.59943C9.23895 8.88354 9.59689 9.02619 10.0302 9.02738Z" fill="#9E001F"/>
</svg>
