<svg width="11" height="21" viewBox="0 0 11 21" fill="none" xmlns="http://www.w3.org/2000/svg">
<path d="M0.0548256 0L10.0548 0.0274128L10.0333 7.87738C10.0322 8.26072 9.94795 8.60215 9.78046 8.90169C9.61297 9.20124 9.37898 9.44226 9.07848 9.62477L5.52273 11.715L6.21642 14.0169L10.0164 14.0274L6.91039 16.2189L8.09997 20.0221L5.00642 17.6636L1.89999 20.0051L3.11041 16.2084L0.0164477 13.9999L3.81643 14.0104L4.52274 11.7123L0.978506 9.60257C0.679009 9.41841 0.446339 9.17611 0.280496 8.87565C0.114652 8.5752 0.0322557 8.2333 0.0333065 7.84997L0.0548256 0ZM2.04934 2.00548L2.0333 7.85545L4.03 9.06093L4.04933 2.01096L2.04934 2.00548ZM8.04931 2.02192L6.04932 2.01644L6.02999 9.06641L8.03328 7.8719L8.04931 2.02192Z" fill="#6F5600"/>
</svg>
