<svg width="29" height="29" viewBox="0 0 29 29" fill="none" xmlns="http://www.w3.org/2000/svg">
<path d="M7.87461 19.1215C8.72638 18.4738 9.67779 17.9639 10.7288 17.5918C11.7798 17.2197 12.8803 17.0352 14.0303 17.0383C15.1803 17.0415 16.2798 17.232 17.3288 17.6099C18.3778 17.9877 19.3263 18.5028 20.1746 19.1552C20.7598 18.4734 21.2161 17.6997 21.5434 16.8339C21.8708 15.9681 22.0358 15.0436 22.0385 14.0603C22.0446 11.8436 21.2706 9.95397 19.7166 8.39137C18.1625 6.82878 16.2772 6.04444 14.0605 6.03836C11.8438 6.03228 9.95421 6.80627 8.39161 8.36033C6.82901 9.91439 6.04467 11.7997 6.03859 14.0164C6.0359 14.9997 6.19586 15.9252 6.51848 16.7927C6.84111 17.6603 7.29315 18.4365 7.87461 19.1215ZM14.0358 15.0383C13.0525 15.0356 12.2243 14.6959 11.5511 14.019C10.878 13.3422 10.5427 12.5121 10.5454 11.5287C10.5481 10.5454 10.8879 9.71718 11.5647 9.04403C12.2416 8.37088 13.0717 8.03566 14.055 8.03835C15.0383 8.04105 15.8666 8.38082 16.5397 9.05767C17.2129 9.73452 17.5481 10.5646 17.5454 11.5479C17.5427 12.5313 17.2029 13.3595 16.5261 14.0327C15.8492 14.7058 15.0192 15.041 14.0358 15.0383ZM14.0112 24.0383C12.6278 24.0345 11.3285 23.7684 10.1133 23.2401C8.8981 22.7118 7.84172 21.9964 6.9442 21.0939C6.04667 20.1914 5.33707 19.1312 4.81541 17.9131C4.29374 16.695 4.03481 15.3942 4.0386 14.0109C4.04239 12.6276 4.30846 11.3283 4.83679 10.1131C5.36512 8.89787 6.08052 7.84149 6.98298 6.94396C7.88545 6.04643 8.94573 5.33684 10.1638 4.81517C11.3819 4.29351 12.6826 4.03458 14.066 4.03837C15.4493 4.04216 16.7486 4.30822 17.9638 4.83656C19.179 5.36489 20.2354 6.08029 21.1329 6.98275C22.0305 7.88522 22.7401 8.9455 23.2617 10.1636C23.7834 11.3817 24.0423 12.6824 24.0385 14.0657C24.0347 15.4491 23.7687 16.7483 23.2403 17.9636C22.712 19.1788 21.9966 20.2352 21.0941 21.1327C20.1917 22.0302 19.1314 22.7398 17.9133 23.2615C16.6952 23.7831 15.3945 24.0421 14.0112 24.0383ZM14.0166 22.0383C14.9 22.0407 15.7336 21.9138 16.5177 21.6577C17.3017 21.4015 18.0194 21.0326 18.6707 20.5511C18.0221 20.0659 17.3064 19.6931 16.5238 19.4327C15.7412 19.1722 14.9082 19.0407 14.0249 19.0383C13.1415 19.0359 12.3078 19.1628 11.5238 19.419C10.7398 19.6751 10.0221 20.044 9.37076 20.5256C10.0194 21.0107 10.7351 21.3835 11.5177 21.6439C12.3003 21.9044 13.1333 22.0359 14.0166 22.0383ZM14.0413 13.0383C14.4746 13.0395 14.8334 12.8988 15.1175 12.6163C15.4016 12.3337 15.5442 11.9758 15.5454 11.5425C15.5466 11.1091 15.4059 10.7504 15.1234 10.4663C14.8408 10.1822 14.4829 10.0395 14.0495 10.0383C13.6162 10.0372 13.2575 10.1778 12.9734 10.4604C12.6893 10.743 12.5466 11.1009 12.5454 11.5342C12.5442 11.9676 12.6849 12.3263 12.9675 12.6104C13.25 12.8945 13.608 13.0371 14.0413 13.0383Z" fill="#9E001F"/>
</svg>
