<svg width="29" height="29" viewBox="0 0 29 29" fill="none" xmlns="http://www.w3.org/2000/svg">
<path d="M7.87436 19.1215C8.72614 18.4738 9.67754 17.9639 10.7286 17.5918C11.7796 17.2197 12.8801 17.0352 14.0301 17.0383C15.1801 17.0415 16.2796 17.232 17.3285 17.6099C18.3775 17.9877 19.3261 18.5028 20.1743 19.1552C20.7595 18.4734 21.2158 17.6997 21.5432 16.8339C21.8706 15.9681 22.0356 15.0436 22.0383 14.0603C22.0444 11.8436 21.2704 9.95397 19.7163 8.39137C18.1623 6.82878 16.2769 6.04444 14.0602 6.03836C11.8436 6.03228 9.95396 6.80627 8.39136 8.36033C6.82876 9.91439 6.04443 11.7997 6.03835 14.0164C6.03565 14.9997 6.19562 15.9252 6.51824 16.7927C6.84086 17.6603 7.2929 18.4365 7.87436 19.1215ZM14.0356 15.0383C13.0522 15.0356 12.224 14.6959 11.5509 14.019C10.8777 13.3422 10.5425 12.5121 10.5452 11.5287C10.5479 10.5454 10.8877 9.71718 11.5645 9.04403C12.2413 8.37088 13.0714 8.03566 14.0548 8.03835C15.0381 8.04105 15.8663 8.38082 16.5395 9.05767C17.2126 9.73452 17.5479 10.5646 17.5452 11.5479C17.5425 12.5313 17.2027 13.3595 16.5258 14.0327C15.849 14.7058 15.0189 15.041 14.0356 15.0383ZM14.0109 24.0383C12.6276 24.0345 11.3283 23.7684 10.1131 23.2401C8.89786 22.7118 7.84148 21.9964 6.94395 21.0939C6.04642 20.1914 5.33683 19.1312 4.81516 17.9131C4.2935 16.695 4.03456 15.3942 4.03836 14.0109C4.04215 12.6276 4.30821 11.3283 4.83654 10.1131C5.36488 8.89787 6.08028 7.84149 6.98274 6.94396C7.8852 6.04643 8.94549 5.33684 10.1636 4.81517C11.3817 4.29351 12.6824 4.03458 14.0657 4.03837C15.4491 4.04216 16.7483 4.30822 17.9636 4.83656C19.1788 5.36489 20.2352 6.08029 21.1327 6.98275C22.0302 7.88522 22.7398 8.9455 23.2615 10.1636C23.7831 11.3817 24.0421 12.6824 24.0383 14.0657C24.0345 15.4491 23.7684 16.7483 23.2401 17.9636C22.7118 19.1788 21.9964 20.2352 21.0939 21.1327C20.1914 22.0302 19.1312 22.7398 17.9131 23.2615C16.6949 23.7831 15.3942 24.0421 14.0109 24.0383ZM14.0164 22.0383C14.8997 22.0407 15.7334 21.9138 16.5174 21.6577C17.3015 21.4015 18.0192 21.0326 18.6705 20.5511C18.0218 20.0659 17.3062 19.6931 16.5235 19.4327C15.7409 19.1722 14.9079 19.0407 14.0246 19.0383C13.1413 19.0359 12.3076 19.1628 11.5236 19.419C10.7395 19.6751 10.0218 20.044 9.37052 20.5256C10.0192 21.0107 10.7348 21.3835 11.5175 21.6439C12.3001 21.9044 13.1331 22.0359 14.0164 22.0383ZM14.0411 13.0383C14.4744 13.0395 14.8331 12.8988 15.1172 12.6163C15.4013 12.3337 15.544 11.9758 15.5452 11.5425C15.5464 11.1091 15.4057 10.7504 15.1231 10.4663C14.8406 10.1822 14.4826 10.0395 14.0493 10.0383C13.616 10.0372 13.2572 10.1778 12.9731 10.4604C12.689 10.743 12.5464 11.1009 12.5452 11.5342C12.544 11.9676 12.6847 12.3263 12.9672 12.6104C13.2498 12.8945 13.6077 13.0371 14.0411 13.0383Z" fill="#9E001F"/>
</svg>
